<svg width="560" height="560" viewBox="0 0 560 560" fill="none" xmlns="http://www.w3.org/2000/svg">
<path d="M208.347 41H344.782V175.843H208.347V41Z" fill="white"/>
<path d="M148 496.958L207.909 184.054H344.782L413 496.958H148Z" fill="url(#paint0_linear_21542_5044)"/>
<path d="M413 496.958C413 509.132 353.678 519 280.5 519C207.322 519 148 509.132 148 496.958C148 484.785 207.322 474.917 280.5 474.917C353.678 474.917 413 484.785 413 496.958Z" fill="white"/>
<path d="M278.199 256.694C272.959 256.694 268.409 254.903 264.548 251.32C260.963 247.462 259.171 242.914 259.171 237.678C259.171 232.441 260.963 228.031 264.548 224.449C268.409 220.59 272.959 218.661 278.199 218.661C283.439 218.661 287.851 220.59 291.436 224.449C295.297 228.031 297.227 232.441 297.227 237.678C297.227 242.914 295.297 247.462 291.436 251.32C287.851 254.903 283.439 256.694 278.199 256.694ZM261.239 493.162V286.459H295.986V493.162H261.239Z" fill="black"/>
<defs>
<linearGradient id="paint0_linear_21542_5044" x1="280.5" y1="41" x2="280.5" y2="519" gradientUnits="userSpaceOnUse">
<stop stop-color="white"/>
<stop offset="1" stop-color="white" stop-opacity="0.64"/>
</linearGradient>
</defs>
</svg>
